<svg width="25" height="25" viewBox="0 0 25 25" fill="none" xmlns="http://www.w3.org/2000/svg">
<path d="M12.4824 1.00006C12.3766 1.00383 12.2747 1.0411 12.1914 1.1065L0.691378 10.1065C0.639677 10.147 0.596464 10.1973 0.564208 10.2545C0.531952 10.3118 0.511284 10.3748 0.503385 10.44C0.495486 10.5052 0.500511 10.5713 0.518172 10.6346C0.535833 10.6979 0.565785 10.757 0.606317 10.8087C0.646848 10.8604 0.697166 10.9036 0.754396 10.9359C0.811625 10.9681 0.874646 10.9888 0.939858 10.9966C1.00507 11.0045 1.0712 10.9995 1.13446 10.9818C1.19772 10.9641 1.25688 10.9342 1.30857 10.8936L1.99997 10.3526V23.5001C1.99998 23.6327 2.05267 23.7598 2.14643 23.8536C2.2402 23.9474 2.36737 24 2.49997 24.0001H22.5C22.6326 24 22.7597 23.9474 22.8535 23.8536C22.9473 23.7598 23 23.6327 23 23.5001V10.3526L23.6914 10.8936C23.7431 10.9342 23.8022 10.9641 23.8655 10.9818C23.9287 10.9995 23.9949 11.0045 24.0601 10.9966C24.1253 10.9887 24.1883 10.9681 24.2455 10.9358C24.3028 10.9036 24.3531 10.8604 24.3936 10.8087C24.4341 10.757 24.4641 10.6979 24.4818 10.6346C24.4994 10.5713 24.5044 10.5052 24.4965 10.44C24.4887 10.3748 24.468 10.3118 24.4357 10.2545C24.4035 10.1973 24.3603 10.147 24.3086 10.1065L12.8086 1.1065C12.7158 1.03366 12.6003 0.995962 12.4824 1.00006ZM12.5 2.13482L22 9.56939V23.0001H2.99997V9.56939L12.5 2.13482ZM12.5 6.00006C11.4013 6.00006 10.5 6.90141 10.5 8.00006C10.5 9.0987 11.4013 10.0001 12.5 10.0001C13.5986 10.0001 14.5 9.0987 14.5 8.00006C14.5 6.90141 13.5986 6.00006 12.5 6.00006ZM12.5 7.00006C13.0582 7.00006 13.5 7.44185 13.5 8.00006C13.5 8.55826 13.0582 9.00006 12.5 9.00006C11.9418 9.00006 11.5 8.55826 11.5 8.00006C11.5 7.44185 11.9418 7.00006 12.5 7.00006ZM12.5 10.5001C10.5321 10.5001 8.99997 12.3105 8.99997 14.4522V16.8087L10.0263 17.3223L10.4424 22.0001H14.5576L14.9736 17.3223L16 16.8087V14.4522C16 12.3105 14.4679 10.5001 12.5 10.5001ZM12.5 11.5001C13.8461 11.5001 15 12.78 15 14.4522V16.1915L14.0263 16.6778L13.6426 21.0001H11.3574L10.9736 16.6778L9.99997 16.1915V14.4522C9.99997 12.78 11.1539 11.5001 12.5 11.5001Z" fill="white"/>
</svg>
