<svg width="76" height="75" viewBox="0 0 76 75" fill="none" xmlns="http://www.w3.org/2000/svg">
<path d="M37.6667 6.09375C18.7878 6.09375 3.2605 19.3887 3.2605 36C3.2605 45.6387 8.60425 54.1406 16.6667 59.5781C16.655 59.9004 16.6667 60.3984 16.2449 61.9688C15.7234 63.9082 14.6921 66.6562 12.5417 69.7031L10.9949 71.8594L13.6667 71.9062C22.9304 71.9473 28.2976 65.8594 29.1355 64.875C31.8718 65.4844 34.7195 65.9062 37.6667 65.9062C56.5398 65.9062 72.073 52.6113 72.073 36C72.073 19.3887 56.5398 6.09375 37.6667 6.09375ZM37.6667 8.90625C55.239 8.90625 69.2605 21.1348 69.2605 36C69.2605 50.8652 55.239 63.0938 37.6667 63.0938C34.6609 63.0938 31.7429 62.7305 28.9949 62.0625L28.1511 61.875L27.5886 62.5781C27.5886 62.5781 23.2527 67.4648 16.3386 68.625C17.5867 66.3867 18.5359 64.3066 18.9636 62.7188C19.5613 60.498 19.573 58.9688 19.573 58.9688V58.2188L18.9167 57.7969C11.0769 52.8281 6.073 44.9121 6.073 36C6.073 21.1348 20.0886 8.90625 37.6667 8.90625Z" fill="white"/>
<path d="M40.0784 41.348H35.2054C34.6419 41.348 34.3601 41.0571 34.3601 40.4752L33.8629 26.705V18.1228C33.8629 17.5409 34.1446 17.25 34.7082 17.25H40.5756C41.1723 17.25 41.4706 17.5409 41.4706 18.1228V26.705L40.9734 40.4752C40.9734 41.0571 40.675 41.348 40.0784 41.348ZM42.1667 48.1847C42.1667 49.413 41.7358 50.4474 40.8739 51.2878C40.0121 52.0959 38.9347 52.5 37.6419 52.5C36.3491 52.5 35.2717 52.0959 34.4098 51.2878C33.5811 50.4474 33.1667 49.413 33.1667 48.1847C33.1667 46.924 33.5811 45.8896 34.4098 45.0815C35.2386 44.2734 36.3159 43.8693 37.6419 43.8693C38.9679 43.8693 40.0452 44.2734 40.8739 45.0815C41.7358 45.8896 42.1667 46.924 42.1667 48.1847Z" fill="white"/>
</svg>
