<svg width="76" height="75" viewBox="0 0 76 75" fill="none" xmlns="http://www.w3.org/2000/svg">
<g clip-path="url(#clip0_292_1110)">
<path d="M37.0471 0C35.3224 0 34.0471 1.42446 33.9211 3.11133C30.4004 3.55584 27.6908 5.48846 26.0198 7.99512C24.262 10.6319 23.532 13.7402 23.4241 16.5088C23.1889 16.5765 23.0037 16.5999 22.592 16.834C21.9689 17.1884 21.3115 17.8632 20.9192 18.7969C20.5268 19.7305 20.3333 20.9021 20.3333 22.5V23.6719L21.47 23.9561C21.47 23.9561 22.497 24.1644 23.9661 24.4131C24.1428 25.4412 24.3563 26.4158 24.6223 27.4775C23.9282 28.3148 23.3747 29.4343 23.5735 31.0957L23.5764 31.0986C23.7982 32.942 24.2946 34.2512 25.0178 35.1738C25.4109 35.6752 25.9188 35.7273 26.3977 35.9707C26.6637 37.5389 27.1302 39.1168 27.7864 40.4268C28.1637 41.1799 28.5661 41.852 28.9846 42.416C29.1709 42.6671 29.4403 42.823 29.6379 43.0342C29.6478 44.8888 29.6839 46.4242 29.5237 48.3809C29.0341 49.5539 27.8813 50.5205 26.0403 51.4395C24.1364 52.3898 21.6576 53.231 19.1526 54.3076C16.6476 55.3843 14.0899 56.7031 12.051 58.7666C10.0122 60.8301 8.56051 63.6769 8.33618 67.4092L8.2395 69H33.5549C35.1152 71.6874 38.0164 73.5 41.3333 73.5H68.3333V73.4736C72.502 73.213 75.8333 69.7336 75.8333 65.502V37.5C75.8332 37.1022 75.6752 36.7207 75.3939 36.4394C75.1126 36.1581 74.7311 36 74.3333 36H50.3391C50.3434 35.9735 50.3495 35.9474 50.3538 35.9209C50.8013 35.678 51.2798 35.6443 51.6487 35.1738C52.3717 34.2519 52.8688 32.9398 53.0901 31.0986C53.2885 29.4515 52.7472 28.3362 52.0618 27.498C52.3355 26.6381 52.6155 25.6327 52.8645 24.3896C54.2365 24.1532 55.1995 23.9561 55.1995 23.9561L56.3333 23.6689V22.5C56.3333 20.8894 56.1396 19.7106 55.7473 18.7734C55.355 17.8362 54.6949 17.1626 54.0657 16.8105C53.6556 16.5811 53.477 16.5597 53.2395 16.4941C53.1272 13.7227 52.3848 10.6219 50.6233 7.99219C48.9472 5.48995 46.2433 3.56034 42.7454 3.11426C42.6206 1.42605 41.3452 0 39.6194 0H37.0471ZM37.0471 3H39.6194C39.6436 3 39.8333 3.1031 39.8333 3.33691V4.17773C39.8065 4.33972 39.8065 4.505 39.8333 4.66699V13.5C39.8304 13.6988 39.8672 13.8961 39.9413 14.0806C40.0154 14.265 40.1254 14.4329 40.265 14.5745C40.4046 14.716 40.5709 14.8284 40.7543 14.9051C40.9377 14.9819 41.1345 15.0214 41.3333 15.0214C41.532 15.0214 41.7288 14.9819 41.9122 14.9051C42.0956 14.8284 42.2619 14.716 42.4015 14.5745C42.5411 14.4329 42.6511 14.265 42.7252 14.0806C42.7993 13.8961 42.8361 13.6988 42.8333 13.5V6.31055C45.1316 6.74532 46.9199 7.85533 48.1301 9.66211C49.6155 11.8796 50.3333 14.8328 50.3333 17.1797C50.3333 17.6265 50.5256 18.2131 50.8723 18.5801C51.2191 18.9471 51.5698 19.0775 51.8069 19.1602C52.281 19.3255 52.4801 19.3592 52.6008 19.4268C52.7216 19.4943 52.8115 19.5271 52.9817 19.9336C53.0705 20.1457 53.0985 20.822 53.1663 21.2725C52.8181 21.3479 52.2651 21.4602 51.5667 21.5801C51.4348 21.5824 51.3037 21.6021 51.177 21.6387C48.8073 22.0238 44.7029 22.5 38.342 22.5C32.1161 22.5 28.0787 22.0427 25.6799 21.6621C25.5483 21.6252 25.4123 21.6065 25.2756 21.6064C24.4765 21.4734 23.8841 21.3548 23.5032 21.2725C23.5706 20.8326 23.5968 20.1665 23.6848 19.957C23.855 19.5522 23.9476 19.5165 24.0745 19.4443C24.2013 19.3722 24.4042 19.3325 24.8772 19.1602C25.1137 19.074 25.4627 18.9402 25.803 18.5742C26.1433 18.2082 26.3333 17.6265 26.3333 17.1797C26.3333 14.8294 27.0389 11.8748 28.5159 9.65918C29.7213 7.85102 31.5115 6.74028 33.8333 6.30762V13.5C33.8304 13.6988 33.8672 13.8961 33.9413 14.0806C34.0154 14.265 34.1254 14.4329 34.265 14.5745C34.4046 14.716 34.5709 14.8284 34.7543 14.9051C34.9377 14.9819 35.1345 15.0214 35.3333 15.0214C35.532 15.0214 35.7288 14.9819 35.9122 14.9051C36.0956 14.8284 36.2619 14.716 36.4015 14.5745C36.5411 14.4329 36.6511 14.265 36.7252 14.0806C36.7993 13.8961 36.8361 13.6988 36.8333 13.5V4.68164C36.8603 4.5187 36.8603 4.3524 36.8333 4.18945V3.33691C36.8333 3.1031 37.0259 3 37.0471 3ZM49.7385 24.8467C49.5138 25.8195 49.2691 26.6105 49.0237 27.3486L48.6458 28.4824L49.6682 29.1035C49.6035 29.0643 50.2636 29.4924 50.1135 30.7383C49.937 32.2111 49.5571 32.9782 49.2874 33.3223C49.0176 33.6663 48.874 33.6495 48.8625 33.6504L47.6262 33.75L47.4944 34.9863C47.4608 35.3027 47.3644 35.6567 47.2893 36H44.3333C43.9354 36 43.5539 36.1581 43.2726 36.4394C42.9913 36.7207 42.8333 37.1022 42.8333 37.5V64.5H33.9856C33.5878 64.5 33.2063 64.6581 32.925 64.9394C32.6437 65.2207 32.4856 65.6022 32.4856 66H11.6965C12.1196 63.8704 12.9141 62.164 14.1868 60.876C15.785 59.2584 17.9774 58.0782 20.3362 57.0645C22.6949 56.0507 25.1937 55.2139 27.3792 54.123C29.5646 53.0322 31.5611 51.6201 32.4182 49.3154L32.4885 49.1279L32.5061 48.9287C32.7338 46.4146 32.6497 44.6497 32.6497 42.4775V41.5693L31.844 41.1475C31.9795 41.2185 31.6759 41.0103 31.3928 40.6289C31.1098 40.2475 30.7783 39.7033 30.467 39.082C29.8446 37.8395 29.3092 36.2707 29.1721 34.9863L29.0403 33.75L27.804 33.6504C27.7926 33.6495 27.6489 33.6664 27.3792 33.3223C27.1097 32.9785 26.7304 32.2113 26.553 30.7412V30.7383C26.4068 29.4969 27.0658 29.0613 27.0012 29.1006L27.9534 28.5234L27.6721 27.4453C27.4127 26.4452 27.2261 25.6479 27.0715 24.8643C29.8898 25.1989 33.6569 25.5 38.342 25.5C43.101 25.5 46.9114 25.1877 49.7385 24.8467ZM45.8333 39H72.8333V65.502C72.8333 68.1949 70.7448 70.3446 68.0872 70.4766C65.7035 70.3479 63.8333 68.4183 63.8333 66C63.8332 65.6022 63.6752 65.2207 63.3939 64.9394C63.1126 64.6581 62.7311 64.5 62.3333 64.5H45.8333V39ZM59.3333 42L48.8333 48V61.5H69.8333V48L59.3333 42ZM59.3333 45.4512L66.8333 49.7988V52.5H63.8333V55.5H66.8333V58.5H51.8333V55.5H54.8333V52.5H51.8333V49.7988L59.3333 45.4512ZM57.8333 52.5V55.5H60.8333V52.5H57.8333ZM36.5315 67.5H61.1379C61.3755 68.6184 61.8196 69.624 62.4973 70.5H41.3333C39.1813 70.5 37.5893 69.1859 36.5315 67.5Z" fill="white"/>
</g>
<defs>
<clipPath id="clip0_292_1110">
<rect width="75" height="75" fill="white" transform="translate(0.833252)"/>
</clipPath>
</defs>
</svg>
