<svg width="76" height="75" viewBox="0 0 76 75" fill="none" xmlns="http://www.w3.org/2000/svg">
<g clip-path="url(#clip0_292_1117)">
<path d="M17 3C16.7699 3 16.5406 3.05245 16.3291 3.1582L14 4.32422L11.6709 3.1582C11.2059 2.9272 10.6559 2.94965 10.2119 3.22265C9.77091 3.49715 9.5 3.9795 9.5 4.5V70.5C9.5 71.3295 10.172 72 11 72H58.1357C57.6212 71.124 57.1546 70.14 56.7676 69H51.5205H12.5V6.92578L13.3291 7.34179C13.7506 7.55329 14.2479 7.55329 14.6709 7.34179L17 6.17578L19.3291 7.34179C19.7506 7.55329 20.2479 7.55329 20.6709 7.34179L23 6.17578L25.3291 7.34179C25.7506 7.55329 26.2479 7.55329 26.6709 7.34179L29 6.17578L31.3291 7.34179C31.7506 7.55329 32.2479 7.55329 32.6709 7.34179L35 6.17578L37.3291 7.34179C37.7506 7.55329 38.2479 7.55329 38.6709 7.34179L41 6.17578L43.3291 7.34179C43.7506 7.55329 44.2479 7.55329 44.6709 7.34179L47 6.17578L49.3291 7.34179C49.7506 7.55329 50.2479 7.55329 50.6709 7.34179L53 6.17578L55.3291 7.34179C55.7506 7.55329 56.2479 7.55329 56.6709 7.34179L59 6.17578L61.3291 7.34179C61.7506 7.55329 62.2479 7.55329 62.6709 7.34179L63.5 6.92578V46.2598C64.436 45.8038 65.4335 45.4675 66.5 45.2695V4.5C66.5 3.9795 66.2291 3.49715 65.7881 3.22265C65.3441 2.94815 64.7926 2.9272 64.3291 3.1582L62 4.32422L59.6709 3.1582C59.2494 2.9467 58.7521 2.9467 58.3291 3.1582L56 4.32422L53.6709 3.1582C53.2494 2.9467 52.7521 2.9467 52.3291 3.1582L50 4.32422L47.6709 3.1582C47.2494 2.9467 46.7521 2.9467 46.3291 3.1582L44 4.32422L41.6709 3.1582C41.2494 2.9467 40.7521 2.9467 40.3291 3.1582L38 4.32422L35.6709 3.1582C35.2494 2.9467 34.7521 2.9467 34.3291 3.1582L32 4.32422L29.6709 3.1582C29.2494 2.9467 28.7521 2.9467 28.3291 3.1582L26 4.32422L23.6709 3.1582C23.2494 2.9467 22.7521 2.9467 22.3291 3.1582L20 4.32422L17.6709 3.1582C17.4601 3.05245 17.2301 3 17 3ZM20 16.5C19.8012 16.4972 19.6039 16.5339 19.4194 16.608C19.235 16.6821 19.0671 16.7922 18.9255 16.9318C18.784 17.0713 18.6716 17.2376 18.5949 17.421C18.5181 17.6044 18.4786 17.8012 18.4786 18C18.4786 18.1988 18.5181 18.3956 18.5949 18.579C18.6716 18.7624 18.784 18.9287 18.9255 19.0682C19.0671 19.2078 19.235 19.3178 19.4194 19.392C19.6039 19.4661 19.8012 19.5028 20 19.5H42.5C42.6988 19.5028 42.8961 19.4661 43.0806 19.392C43.265 19.3178 43.4329 19.2078 43.5745 19.0682C43.716 18.9287 43.8284 18.7624 43.9051 18.579C43.9819 18.3956 44.0214 18.1988 44.0214 18C44.0214 17.8012 43.9819 17.6044 43.9051 17.421C43.8284 17.2376 43.716 17.0713 43.5745 16.9318C43.4329 16.7922 43.265 16.6821 43.0806 16.608C42.8961 16.5339 42.6988 16.4972 42.5 16.5H20ZM51.5 16.5C51.3012 16.4972 51.1039 16.5339 50.9194 16.608C50.735 16.6821 50.5671 16.7922 50.4255 16.9318C50.284 17.0713 50.1716 17.2376 50.0949 17.421C50.0181 17.6044 49.9786 17.8012 49.9786 18C49.9786 18.1988 50.0181 18.3956 50.0949 18.579C50.1716 18.7624 50.284 18.9287 50.4255 19.0682C50.5671 19.2078 50.735 19.3178 50.9194 19.392C51.1039 19.4661 51.3012 19.5028 51.5 19.5H56C56.1988 19.5028 56.3961 19.4661 56.5806 19.392C56.765 19.3178 56.9329 19.2078 57.0745 19.0682C57.216 18.9287 57.3284 18.7624 57.4051 18.579C57.4819 18.3956 57.5214 18.1988 57.5214 18C57.5214 17.8012 57.4819 17.6044 57.4051 17.421C57.3284 17.2376 57.216 17.0713 57.0745 16.9318C56.9329 16.7922 56.765 16.6821 56.5806 16.608C56.3961 16.5339 56.1988 16.4972 56 16.5H51.5ZM20 25.5C19.8012 25.4972 19.6039 25.5339 19.4194 25.608C19.235 25.6822 19.0671 25.7922 18.9255 25.9318C18.784 26.0713 18.6716 26.2376 18.5949 26.421C18.5181 26.6044 18.4786 26.8012 18.4786 27C18.4786 27.1988 18.5181 27.3956 18.5949 27.579C18.6716 27.7624 18.784 27.9287 18.9255 28.0682C19.0671 28.2078 19.235 28.3178 19.4194 28.392C19.6039 28.4661 19.8012 28.5028 20 28.5H36.5C36.6988 28.5028 36.8961 28.4661 37.0806 28.392C37.265 28.3178 37.4329 28.2078 37.5745 28.0682C37.716 27.9287 37.8284 27.7624 37.9051 27.579C37.9819 27.3956 38.0214 27.1988 38.0214 27C38.0214 26.8012 37.9819 26.6044 37.9051 26.421C37.8284 26.2376 37.716 26.0713 37.5745 25.9318C37.4329 25.7922 37.265 25.6822 37.0806 25.608C36.8961 25.5339 36.6988 25.4972 36.5 25.5H20ZM51.5 25.5C51.3012 25.4972 51.1039 25.5339 50.9194 25.608C50.735 25.6822 50.5671 25.7922 50.4255 25.9318C50.284 26.0713 50.1716 26.2376 50.0949 26.421C50.0181 26.6044 49.9786 26.8012 49.9786 27C49.9786 27.1988 50.0181 27.3956 50.0949 27.579C50.1716 27.7624 50.284 27.9287 50.4255 28.0682C50.5671 28.2078 50.735 28.3178 50.9194 28.392C51.1039 28.4661 51.3012 28.5028 51.5 28.5H56C56.1988 28.5028 56.3961 28.4661 56.5806 28.392C56.765 28.3178 56.9329 28.2078 57.0745 28.0682C57.216 27.9287 57.3284 27.7624 57.4051 27.579C57.4819 27.3956 57.5214 27.1988 57.5214 27C57.5214 26.8012 57.4819 26.6044 57.4051 26.421C57.3284 26.2376 57.216 26.0713 57.0745 25.9318C56.9329 25.7922 56.765 25.6822 56.5806 25.608C56.3961 25.5339 56.1988 25.4972 56 25.5H51.5ZM20 34.5C19.8012 34.4972 19.6039 34.5339 19.4194 34.608C19.235 34.6822 19.0671 34.7922 18.9255 34.9318C18.784 35.0713 18.6716 35.2376 18.5949 35.421C18.5181 35.6044 18.4786 35.8012 18.4786 36C18.4786 36.1988 18.5181 36.3956 18.5949 36.579C18.6716 36.7624 18.784 36.9287 18.9255 37.0682C19.0671 37.2078 19.235 37.3178 19.4194 37.392C19.6039 37.4661 19.8012 37.5028 20 37.5H42.5C42.6988 37.5028 42.8961 37.4661 43.0806 37.392C43.265 37.3178 43.4329 37.2078 43.5745 37.0682C43.716 36.9287 43.8284 36.7624 43.9051 36.579C43.9819 36.3956 44.0214 36.1988 44.0214 36C44.0214 35.8012 43.9819 35.6044 43.9051 35.421C43.8284 35.2376 43.716 35.0713 43.5745 34.9318C43.4329 34.7922 43.265 34.6822 43.0806 34.608C42.8961 34.5339 42.6988 34.4972 42.5 34.5H20ZM51.5 34.5C51.3012 34.4972 51.1039 34.5339 50.9194 34.608C50.735 34.6822 50.5671 34.7922 50.4255 34.9318C50.284 35.0713 50.1716 35.2376 50.0949 35.421C50.0181 35.6044 49.9786 35.8012 49.9786 36C49.9786 36.1988 50.0181 36.3956 50.0949 36.579C50.1716 36.7624 50.284 36.9287 50.4255 37.0682C50.5671 37.2078 50.735 37.3178 50.9194 37.392C51.1039 37.4661 51.3012 37.5028 51.5 37.5H56C56.1988 37.5028 56.3961 37.4661 56.5806 37.392C56.765 37.3178 56.9329 37.2078 57.0745 37.0682C57.216 36.9287 57.3284 36.7624 57.4051 36.579C57.4819 36.3956 57.5214 36.1988 57.5214 36C57.5214 35.8012 57.4819 35.6044 57.4051 35.421C57.3284 35.2376 57.216 35.0713 57.0745 34.9318C56.9329 34.7922 56.765 34.6822 56.5806 34.608C56.3961 34.5339 56.1988 34.4972 56 34.5H51.5ZM20 43.5C19.8012 43.4972 19.6039 43.5339 19.4194 43.608C19.235 43.6822 19.0671 43.7922 18.9255 43.9318C18.784 44.0713 18.6716 44.2376 18.5949 44.421C18.5181 44.6044 18.4786 44.8012 18.4786 45C18.4786 45.1988 18.5181 45.3956 18.5949 45.579C18.6716 45.7624 18.784 45.9287 18.9255 46.0682C19.0671 46.2078 19.235 46.3178 19.4194 46.392C19.6039 46.4661 19.8012 46.5028 20 46.5H36.5C36.6988 46.5028 36.8961 46.4661 37.0806 46.392C37.265 46.3178 37.4329 46.2078 37.5745 46.0682C37.716 45.9287 37.8284 45.7624 37.9051 45.579C37.9819 45.3956 38.0214 45.1988 38.0214 45C38.0214 44.8012 37.9819 44.6044 37.9051 44.421C37.8284 44.2376 37.716 44.0713 37.5745 43.9318C37.4329 43.7922 37.265 43.6822 37.0806 43.608C36.8961 43.5339 36.6988 43.4972 36.5 43.5H20ZM51.5 43.5C51.3012 43.4972 51.1039 43.5339 50.9194 43.608C50.735 43.6822 50.5671 43.7922 50.4255 43.9318C50.284 44.0713 50.1716 44.2376 50.0949 44.421C50.0181 44.6044 49.9786 44.8012 49.9786 45C49.9786 45.1988 50.0181 45.3956 50.0949 45.579C50.1716 45.7624 50.284 45.9287 50.4255 46.0682C50.5671 46.2078 50.735 46.3178 50.9194 46.392C51.1039 46.4661 51.3012 46.5028 51.5 46.5H56C56.1988 46.5028 56.3961 46.4661 56.5806 46.392C56.765 46.3178 56.9329 46.2078 57.0745 46.0682C57.216 45.9287 57.3284 45.7624 57.4051 45.579C57.4819 45.3956 57.5214 45.1988 57.5214 45C57.5214 44.8012 57.4819 44.6044 57.4051 44.421C57.3284 44.2376 57.216 44.0713 57.0745 43.9318C56.9329 43.7922 56.765 43.6822 56.5806 43.608C56.3961 43.5339 56.1988 43.4972 56 43.5H51.5ZM69.0254 48.041C66.2114 48.041 63.9082 49.0232 62.1172 50.9912C60.718 52.5007 59.7361 54.5238 59.123 57H57.2363L56 60H58.6836C58.66 60.3883 58.6221 60.6814 58.6221 61.166C58.6221 61.907 58.6496 62.4725 58.6748 63H57.2363L56 66H59.0732C60.3522 71.9741 63.6526 75 69.0254 75C71.0999 75 72.9357 74.4766 74.5332 73.4326V69.6064C73.5312 70.5529 72.7099 71.1966 72.0664 71.5371C71.1844 71.9976 70.1714 72.2285 69.0254 72.2285C65.689 72.2285 63.5331 70.1434 62.5449 66H71.5625L72.8516 63H62.0938C62.0469 62.4328 61.9971 61.7979 61.9971 61.166C61.9971 60.7734 62.0196 60.3767 62.0498 60H71.5625L72.8516 57H62.5566C62.9668 55.4708 63.5408 54.1839 64.2998 53.1738C65.4713 51.6183 66.9488 50.8418 68.7383 50.8418C70.4783 50.8418 72.1869 51.68 73.8564 53.3555L75.5 50.3379C73.3535 48.8064 71.1959 48.041 69.0254 48.041ZM20 52.5C19.6022 52.5 19.2206 52.658 18.9393 52.9393C18.658 53.2206 18.5 53.6022 18.5 54C18.5 54.3978 18.658 54.7794 18.9393 55.0607C19.2206 55.342 19.6022 55.5 20 55.5C20.3978 55.5 20.7794 55.342 21.0607 55.0607C21.342 54.7794 21.5 54.3978 21.5 54C21.5 53.6022 21.342 53.2206 21.0607 52.9393C20.7794 52.658 20.3978 52.5 20 52.5ZM24.5 52.5C24.1022 52.5 23.7206 52.658 23.4393 52.9393C23.158 53.2206 23 53.6022 23 54C23 54.3978 23.158 54.7794 23.4393 55.0607C23.7206 55.342 24.1022 55.5 24.5 55.5C24.8978 55.5 25.2794 55.342 25.5607 55.0607C25.842 54.7794 26 54.3978 26 54C26 53.6022 25.842 53.2206 25.5607 52.9393C25.2794 52.658 24.8978 52.5 24.5 52.5ZM29 52.5C28.6022 52.5 28.2206 52.658 27.9393 52.9393C27.658 53.2206 27.5 53.6022 27.5 54C27.5 54.3978 27.658 54.7794 27.9393 55.0607C28.2206 55.342 28.6022 55.5 29 55.5C29.3978 55.5 29.7794 55.342 30.0607 55.0607C30.342 54.7794 30.5 54.3978 30.5 54C30.5 53.6022 30.342 53.2206 30.0607 52.9393C29.7794 52.658 29.3978 52.5 29 52.5ZM33.5 52.5C33.1022 52.5 32.7206 52.658 32.4393 52.9393C32.158 53.2206 32 53.6022 32 54C32 54.3978 32.158 54.7794 32.4393 55.0607C32.7206 55.342 33.1022 55.5 33.5 55.5C33.8978 55.5 34.2794 55.342 34.5607 55.0607C34.842 54.7794 35 54.3978 35 54C35 53.6022 34.842 53.2206 34.5607 52.9393C34.2794 52.658 33.8978 52.5 33.5 52.5ZM38 52.5C37.6022 52.5 37.2206 52.658 36.9393 52.9393C36.658 53.2206 36.5 53.6022 36.5 54C36.5 54.3978 36.658 54.7794 36.9393 55.0607C37.2206 55.342 37.6022 55.5 38 55.5C38.3978 55.5 38.7794 55.342 39.0607 55.0607C39.342 54.7794 39.5 54.3978 39.5 54C39.5 53.6022 39.342 53.2206 39.0607 52.9393C38.7794 52.658 38.3978 52.5 38 52.5ZM42.5 52.5C42.1022 52.5 41.7206 52.658 41.4393 52.9393C41.158 53.2206 41 53.6022 41 54C41 54.3978 41.158 54.7794 41.4393 55.0607C41.7206 55.342 42.1022 55.5 42.5 55.5C42.8978 55.5 43.2794 55.342 43.5607 55.0607C43.842 54.7794 44 54.3978 44 54C44 53.6022 43.842 53.2206 43.5607 52.9393C43.2794 52.658 42.8978 52.5 42.5 52.5ZM47 52.5C46.6022 52.5 46.2206 52.658 45.9393 52.9393C45.658 53.2206 45.5 53.6022 45.5 54C45.5 54.3978 45.658 54.7794 45.9393 55.0607C46.2206 55.342 46.6022 55.5 47 55.5C47.3978 55.5 47.7794 55.342 48.0607 55.0607C48.342 54.7794 48.5 54.3978 48.5 54C48.5 53.6022 48.342 53.2206 48.0607 52.9393C47.7794 52.658 47.3978 52.5 47 52.5ZM51.5 52.5C51.1022 52.5 50.7206 52.658 50.4393 52.9393C50.158 53.2206 50 53.6022 50 54C50 54.3978 50.158 54.7794 50.4393 55.0607C50.7206 55.342 51.1022 55.5 51.5 55.5C51.8978 55.5 52.2794 55.342 52.5607 55.0607C52.842 54.7794 53 54.3978 53 54C53 53.6022 52.842 53.2206 52.5607 52.9393C52.2794 52.658 51.8978 52.5 51.5 52.5Z" fill="white"/>
</g>
<defs>
<clipPath id="clip0_292_1117">
<rect width="75" height="75" fill="white" transform="translate(0.5)"/>
</clipPath>
</defs>
</svg>
