<svg width="32" height="32" viewBox="0 0 32 32" fill="none" xmlns="http://www.w3.org/2000/svg">
<path d="M16.1486 29.3332C17.7933 29.3332 19.3606 29.0212 20.8153 28.4772V3.5225C19.3606 2.9785 17.7933 2.6665 16.1486 2.6665C14.5039 2.6665 12.9366 2.9785 11.4819 3.5225V28.4765C12.9366 29.0212 14.5039 29.3332 16.1486 29.3332Z" fill="url(#paint0_linear_292_1018)"/>
<path d="M11.4821 28.4771V3.52246C6.42343 5.41646 2.81543 10.2805 2.81543 15.9998C2.81543 21.7191 6.42343 26.5831 11.4821 28.4771Z" fill="url(#paint1_linear_292_1018)"/>
<path d="M29.4821 15.9998C29.4821 10.2805 25.8741 5.41646 20.8154 3.52246V28.4765C25.8741 26.5831 29.4821 21.7191 29.4821 15.9998Z" fill="url(#paint2_linear_292_1018)"/>
<defs>
<linearGradient id="paint0_linear_292_1018" x1="11.7599" y1="7.90584" x2="22.3019" y2="27.3485" gradientUnits="userSpaceOnUse">
<stop stop-color="#FFD000"/>
<stop offset="1" stop-color="#FFC107"/>
</linearGradient>
<linearGradient id="paint1_linear_292_1018" x1="6.98743" y1="10.7751" x2="17.5308" y2="35.0571" gradientUnits="userSpaceOnUse">
<stop stop-color="#636363"/>
<stop offset="0.998" stop-color="#3B3B3B"/>
</linearGradient>
<linearGradient id="paint2_linear_292_1018" x1="21.7794" y1="11.8598" x2="30.8514" y2="36.6125" gradientUnits="userSpaceOnUse">
<stop offset="0.008" stop-color="#F44F5A"/>
<stop offset="0.447" stop-color="#EE3D4A"/>
<stop offset="1" stop-color="#E52030"/>
</linearGradient>
</defs>
</svg>
