<svg width="25" height="25" viewBox="0 0 25 25" fill="none" xmlns="http://www.w3.org/2000/svg">
<path d="M12.5 1C6.1543 1 1 6.1543 1 12.5C1 18.8457 6.1543 24 12.5 24C18.8457 24 24 18.8457 24 12.5C24 6.1543 18.8457 1 12.5 1ZM12.5 2C18.3047 2 23 6.69531 23 12.5C23 18.3047 18.3047 23 12.5 23C10.6289 23 8.87891 22.5117 7.35937 21.6562L12.7187 16.2812C13.5078 16.7031 14.3184 16.998 15.125 17C16.0586 17.002 16.9687 16.6406 17.7187 15.8906C18.4043 15.2051 19.0742 14.1289 19.5156 12.9531C19.957 11.7773 20.1992 10.5059 19.8281 9.4375C19.7715 9.27344 19.6348 9.15234 19.4668 9.11328C19.2969 9.07617 19.1211 9.12695 19 9.25L16.3594 11.8906C16.1855 12.0645 15.9238 12.0645 15.75 11.8906L13.1094 9.25C12.9375 9.07812 12.9375 8.8125 13.1094 8.64062L15.75 6C15.873 5.87891 15.9238 5.70312 15.8867 5.5332C15.8477 5.36523 15.7266 5.22852 15.5625 5.17187C15.0293 4.98633 14.4395 4.96289 13.8437 5.03125C13.248 5.09961 12.6348 5.26367 12.0469 5.48437C10.8711 5.92578 9.79492 6.5957 9.10937 7.28125C8.36133 8.0293 7.99805 8.94141 8 9.875C8.00195 10.6836 8.29492 11.4922 8.71875 12.2812L3.34375 17.6406C2.48828 16.1211 2 14.3711 2 12.5C2 6.69531 6.69531 2 12.5 2ZM14.2812 6.0625L12.4062 7.9375C11.8516 8.49219 11.8516 9.39844 12.4062 9.95312L15.0469 12.5937C15.6016 13.1504 16.5078 13.1504 17.0625 12.5937L18.9375 10.7187C18.9199 11.3008 18.8262 11.9336 18.5781 12.5937C18.1836 13.6445 17.5469 14.6562 17.0156 15.1875C16.4336 15.7695 15.8164 16.002 15.125 16C14.4336 15.998 13.666 15.748 12.875 15.2656C12.6777 15.1367 12.418 15.1621 12.25 15.3281L6.5 21.1094C5.48047 20.3984 4.60156 19.5195 3.89062 18.5L9.67187 12.75C9.83789 12.582 9.86328 12.3223 9.73437 12.125C9.25391 11.334 9.00195 10.5664 9 9.875C8.99805 9.18359 9.23047 8.56641 9.8125 7.98437C10.3437 7.45312 11.3555 6.81641 12.4062 6.42187C13.0664 6.17383 13.6992 6.08008 14.2812 6.0625Z" fill="white"/>
</svg>
