<svg width="160" height="30" viewBox="0 0 160 30" fill="none" xmlns="http://www.w3.org/2000/svg">
<g clip-path="url(#clip0_292_2651)">
<path d="M0 10.0444H8.26044C13.0896 10.0444 16.2182 12.5891 16.2182 16.8934V16.9479C16.2182 21.5876 12.7334 24.0199 7.9862 24.0199H5.32414V29.6101H0V10.0444ZM7.87584 19.7719C9.74197 19.7719 10.9208 18.738 10.9208 17.1999V17.1437C10.9208 15.4677 9.74029 14.6007 7.84742 14.6007H5.32246V19.7719H7.87417H7.87584Z" fill="#00292E"/>
<path d="M19.616 21.0289V10.0444H24.9936V20.9165C24.9936 23.7406 26.3932 25.0828 28.5336 25.0828C30.6739 25.0828 32.1003 23.7968 32.1003 21.0579V10.0444H37.4796V20.8893C37.4796 27.1778 33.9396 29.9729 28.4801 29.9729C23.0205 29.9729 19.6176 27.1505 19.6176 21.0289" fill="#00292E"/>
<path d="M42.0046 10.0459H51.0877C54.024 10.0459 56.054 10.8277 57.3433 12.1409C58.4686 13.2873 59.0438 14.7691 59.0438 16.6972V16.7534C59.0438 19.7717 57.4804 21.756 55.0925 22.7899L59.6742 29.6099H53.5558L49.6865 23.6858H47.3271V29.6099H42.0029V10.0459H42.0046ZM50.867 19.4361C52.6495 19.4361 53.7197 18.5419 53.7197 17.1162V17.0617C53.7197 15.4964 52.5943 14.7129 50.8386 14.7129H47.3271V19.4361H50.867Z" fill="#00292E"/>
<path d="M63.1038 10.0459H68.7289L73.3106 17.6187L77.8923 10.0459H83.5174V29.6099H78.2217V18.375L73.3106 26.0313H73.2002L68.3159 18.4022V29.6099H63.1038V10.0459Z" fill="#00292E"/>
<path d="M87.6592 19.8842V19.828C87.6592 14.2106 92.1038 9.6543 98.0316 9.6543C103.959 9.6543 108.349 14.1544 108.349 19.7718V19.828C108.349 25.4472 103.904 30.0018 97.9764 30.0018C92.0486 30.0018 87.6592 25.5034 87.6592 19.8842ZM102.887 19.8842V19.828C102.887 16.9784 100.913 14.5461 97.9764 14.5461C95.0401 14.5461 93.092 16.9495 93.092 19.7718V19.828C93.092 22.6521 95.0953 25.1116 98.0316 25.1116C100.968 25.1116 102.887 22.7083 102.887 19.8842Z" fill="#00292E"/>
<mask id="mask0_292_2651" style="mask-type:luminance" maskUnits="userSpaceOnUse" x="119" y="0" width="41" height="30">
<path d="M119.867 10.0545V29.6099H126.308V14.3826L139.934 8.04633L153.559 14.3826V29.6099H160V10.0545L139.934 0L119.867 10.0545Z" fill="white"/>
</mask>
<g mask="url(#mask0_292_2651)">
<path d="M160 0H119.867V29.6099H160V0Z" fill="url(#paint0_linear_292_2651)"/>
</g>
<mask id="mask1_292_2651" style="mask-type:luminance" maskUnits="userSpaceOnUse" x="139" y="14" width="8" height="16">
<path d="M139.934 29.6101H146.746V17.8097L139.934 14.6416V29.6101Z" fill="white"/>
</mask>
<g mask="url(#mask1_292_2651)">
<path d="M146.746 14.6416H139.934V29.6101H146.746V14.6416Z" fill="url(#paint1_linear_292_2651)"/>
</g>
</g>
<defs>
<linearGradient id="paint0_linear_292_2651" x1="119.867" y1="29.6099" x2="160" y2="29.6099" gradientUnits="userSpaceOnUse">
<stop offset="0.129688" stop-color="#FAA61A"/>
<stop offset="0.875" stop-color="#20BEC6"/>
</linearGradient>
<linearGradient id="paint1_linear_292_2651" x1="132.836" y1="21.8567" x2="146.44" y2="21.8567" gradientUnits="userSpaceOnUse">
<stop stop-color="#FAA61A"/>
<stop offset="0.15" stop-color="#FAA61A"/>
<stop offset="0.85" stop-color="#20BEC6"/>
<stop offset="1" stop-color="#20BEC6"/>
</linearGradient>
<clipPath id="clip0_292_2651">
<rect width="160" height="30" fill="white"/>
</clipPath>
</defs>
</svg>
