<svg width="128" height="24" viewBox="0 0 128 24" fill="none" xmlns="http://www.w3.org/2000/svg">
<g clip-path="url(#clip0_249_3014)">
<path d="M0 8.03543H6.60835C10.4717 8.03543 12.9746 10.0712 12.9746 13.5146V13.5582C12.9746 17.27 10.1868 19.2158 6.38896 19.2158H4.25931V23.688H0V8.03543ZM6.30067 15.8174C7.79357 15.8174 8.73667 14.9903 8.73667 13.7598V13.7149C8.73667 12.374 7.79224 11.6805 6.27793 11.6805H4.25797V15.8174H6.29934H6.30067Z" fill="#00292E"/>
<path d="M15.6929 16.823V8.03543H19.995V16.7331C19.995 18.9923 21.1147 20.0661 22.8269 20.0661C24.5392 20.0661 25.6803 19.0373 25.6803 16.8462V8.03543H29.9838V16.7113C29.9838 21.7421 27.1518 23.9782 22.7841 23.9782C18.4165 23.9782 15.6942 21.7203 15.6942 16.823" fill="#00292E"/>
<path d="M33.6036 8.03679H40.8701C43.2192 8.03679 44.8432 8.66224 45.8746 9.71282C46.7748 10.6299 47.235 11.8154 47.235 13.3579V13.4028C47.235 15.8174 45.9843 17.4049 44.074 18.232L47.7393 23.688H42.8446L39.7491 18.9487H37.8616V23.688H33.6023V8.03679H33.6036ZM40.6936 15.549C42.1196 15.549 42.9757 14.8336 42.9757 13.6931V13.6495C42.9757 12.3972 42.0754 11.7704 40.6708 11.7704H37.8616V15.549H40.6936Z" fill="#00292E"/>
<path d="M50.483 8.03679H54.9831L58.6485 14.095L62.3139 8.03679H66.8139V23.688H62.5774V14.7L58.6485 20.8251H58.5602L54.6527 14.7219V23.688H50.483V8.03679Z" fill="#00292E"/>
<path d="M70.1274 15.9073V15.8624C70.1274 11.3684 73.6831 7.72339 78.4253 7.72339C83.1676 7.72339 86.6791 11.3235 86.6791 15.8174V15.8624C86.6791 20.3577 83.1234 24.0014 78.3812 24.0014C73.639 24.0014 70.1274 20.4027 70.1274 15.9073ZM82.3101 15.9073V15.8624C82.3101 13.5827 80.7302 11.6369 78.3812 11.6369C76.0322 11.6369 74.4737 13.5595 74.4737 15.8174V15.8624C74.4737 18.1216 76.0763 20.0893 78.4253 20.0893C80.7744 20.0893 82.3101 18.1666 82.3101 15.9073Z" fill="#00292E"/>
<mask id="mask0_249_3014" style="mask-type:luminance" maskUnits="userSpaceOnUse" x="95" y="0" width="33" height="24">
<path d="M95.8933 8.0436V23.688H101.046V11.506L111.947 6.43706L122.847 11.506V23.688H128V8.0436L111.947 0L95.8933 8.0436Z" fill="white"/>
</mask>
<g mask="url(#mask0_249_3014)">
<path d="M128 0H95.8933V23.688H128V0Z" fill="url(#paint0_linear_249_3014)"/>
</g>
<mask id="mask1_249_3014" style="mask-type:luminance" maskUnits="userSpaceOnUse" x="111" y="11" width="7" height="13">
<path d="M111.947 23.688H117.397V14.2477L111.947 11.7132V23.688Z" fill="white"/>
</mask>
<g mask="url(#mask1_249_3014)">
<path d="M117.397 11.7132H111.947V23.688H117.397V11.7132Z" fill="url(#paint1_linear_249_3014)"/>
</g>
</g>
<defs>
<linearGradient id="paint0_linear_249_3014" x1="95.8933" y1="23.688" x2="128" y2="23.688" gradientUnits="userSpaceOnUse">
<stop offset="0.129688" stop-color="#FAA61A"/>
<stop offset="0.875" stop-color="#20BEC6"/>
</linearGradient>
<linearGradient id="paint1_linear_249_3014" x1="106.269" y1="17.4853" x2="117.152" y2="17.4853" gradientUnits="userSpaceOnUse">
<stop stop-color="#FAA61A"/>
<stop offset="0.15" stop-color="#FAA61A"/>
<stop offset="0.85" stop-color="#20BEC6"/>
<stop offset="1" stop-color="#20BEC6"/>
</linearGradient>
<clipPath id="clip0_249_3014">
<rect width="128" height="24" fill="white"/>
</clipPath>
</defs>
</svg>
