<svg width="160" height="30" viewBox="0 0 160 30" fill="none" xmlns="http://www.w3.org/2000/svg">
<g clip-path="url(#clip0_49_1404)">
<path d="M0 10.0442H8.26044C13.0896 10.0442 16.2182 12.5889 16.2182 16.8931V16.9476C16.2182 21.5874 12.7334 24.0197 7.9862 24.0197H5.32414V29.6098H0V10.0442ZM7.87584 19.7717C9.74197 19.7717 10.9208 18.7378 10.9208 17.1997V17.1435C10.9208 15.4675 9.74029 14.6005 7.84742 14.6005H5.32246V19.7717H7.87417H7.87584Z" fill="#00292E"/>
<path d="M19.616 21.0287V10.0442H24.9936V20.9163C24.9936 23.7403 26.3932 25.0825 28.5336 25.0825C30.6739 25.0825 32.1003 23.7965 32.1003 21.0576V10.0442H37.4796V20.889C37.4796 27.1776 33.9396 29.9727 28.4801 29.9727C23.0205 29.9727 19.6176 27.1503 19.6176 21.0287" fill="#00292E"/>
<path d="M42.0046 10.0459H51.0877C54.024 10.0459 56.054 10.8277 57.3433 12.1409C58.4686 13.2873 59.0438 14.7691 59.0438 16.6972V16.7534C59.0438 19.7717 57.4804 21.756 55.0925 22.7899L59.6742 29.6099H53.5558L49.6865 23.6858H47.3271V29.6099H42.0029V10.0459H42.0046ZM50.867 19.4361C52.6495 19.4361 53.7197 18.5419 53.7197 17.1162V17.0617C53.7197 15.4964 52.5943 14.7129 50.8386 14.7129H47.3271V19.4361H50.867Z" fill="#00292E"/>
<path d="M63.1038 10.0459H68.7289L73.3106 17.6187L77.8923 10.0459H83.5174V29.6099H78.2217V18.375L73.3106 26.0313H73.2002L68.3159 18.4022V29.6099H63.1038V10.0459Z" fill="#00292E"/>
<path d="M87.6592 19.8841V19.8279C87.6592 14.2105 92.1038 9.65417 98.0316 9.65417C103.959 9.65417 108.349 14.1543 108.349 19.7717V19.8279C108.349 25.4471 103.904 30.0016 97.9764 30.0016C92.0486 30.0016 87.6592 25.5033 87.6592 19.8841ZM102.887 19.8841V19.8279C102.887 16.9783 100.913 14.546 97.9764 14.546C95.0401 14.546 93.092 16.9494 93.092 19.7717V19.8279C93.092 22.652 95.0953 25.1115 98.0316 25.1115C100.968 25.1115 102.887 22.7082 102.887 19.8841Z" fill="#00292E"/>
<mask id="mask0_49_1404" style="mask-type:luminance" maskUnits="userSpaceOnUse" x="119" y="0" width="41" height="30">
<path d="M119.867 10.0545V29.6099H126.308V14.3826L139.934 8.04633L153.559 14.3826V29.6099H160V10.0545L139.934 0L119.867 10.0545Z" fill="white"/>
</mask>
<g mask="url(#mask0_49_1404)">
<path d="M160 0H119.867V29.6099H160V0Z" fill="url(#paint0_linear_49_1404)"/>
</g>
<mask id="mask1_49_1404" style="mask-type:luminance" maskUnits="userSpaceOnUse" x="139" y="14" width="8" height="16">
<path d="M139.934 29.61H146.746V17.8096L139.934 14.6415V29.61Z" fill="white"/>
</mask>
<g mask="url(#mask1_49_1404)">
<path d="M146.746 14.6415H139.934V29.61H146.746V14.6415Z" fill="url(#paint1_linear_49_1404)"/>
</g>
</g>
<defs>
<linearGradient id="paint0_linear_49_1404" x1="119.867" y1="29.6099" x2="160" y2="29.6099" gradientUnits="userSpaceOnUse">
<stop offset="0.129688" stop-color="#FAA61A"/>
<stop offset="0.875" stop-color="#20BEC6"/>
</linearGradient>
<linearGradient id="paint1_linear_49_1404" x1="132.836" y1="21.8566" x2="146.44" y2="21.8566" gradientUnits="userSpaceOnUse">
<stop stop-color="#FAA61A"/>
<stop offset="0.15" stop-color="#FAA61A"/>
<stop offset="0.85" stop-color="#20BEC6"/>
<stop offset="1" stop-color="#20BEC6"/>
</linearGradient>
<clipPath id="clip0_49_1404">
<rect width="160" height="30" fill="white"/>
</clipPath>
</defs>
</svg>
