<svg width="20" height="20" viewBox="0 0 20 20" fill="none" xmlns="http://www.w3.org/2000/svg">
<path d="M8.0507 0C3.61428 0 0 3.61429 0 8.0507C0 12.4871 3.61428 16.1014 8.0507 16.1014C9.96974 16.1014 11.7339 15.4235 13.1193 14.2969L18.5663 19.744C18.643 19.8239 18.7349 19.8877 18.8366 19.9316C18.9384 19.9756 19.0478 19.9988 19.1586 20C19.2694 20.0011 19.3793 19.9801 19.4819 19.9382C19.5845 19.8963 19.6777 19.8344 19.756 19.756C19.8344 19.6777 19.8963 19.5845 19.9382 19.4819C19.9801 19.3793 20.0011 19.2694 20 19.1586C19.9988 19.0478 19.9756 18.9384 19.9316 18.8366C19.8877 18.7349 19.8239 18.643 19.744 18.5663L14.2969 13.1193C15.4235 11.7339 16.1014 9.96974 16.1014 8.0507C16.1014 3.61429 12.4871 0 8.0507 0ZM8.0507 1.66566C11.5869 1.66566 14.4357 4.51448 14.4357 8.0507C14.4357 9.77333 13.7563 11.3297 12.654 12.4762C12.5861 12.5261 12.5261 12.5861 12.4762 12.654C11.3297 13.7563 9.77333 14.4357 8.0507 14.4357C4.51447 14.4357 1.66566 11.5869 1.66566 8.0507C1.66566 4.51448 4.51447 1.66566 8.0507 1.66566Z" fill="#00292E"/>
</svg>
