<svg width="25" height="25" viewBox="0 0 25 25" fill="none" xmlns="http://www.w3.org/2000/svg">
<g clip-path="url(#clip0_292_2638)">
<path d="M4.96875 0.265625L4.60938 0.609375L0.609375 4.60938L0.265625 4.96875L0.609375 5.32812L8.42188 13.1406L2.15625 19.4062C2.0918 19.4648 2.04297 19.541 2.01562 19.625L1.01562 23.375C0.970703 23.5469 1.02148 23.7285 1.14648 23.8535C1.27148 23.9785 1.45312 24.0293 1.625 23.9844L5.375 22.9844C5.45898 22.957 5.53516 22.9082 5.59375 22.8438L22.875 5.5625C22.873 5.56445 23.2812 5.15625 23.2812 5.15625C24.2324 4.20508 24.2305 2.66797 23.2812 1.71875C22.3301 0.767578 20.7949 0.769531 19.8438 1.71875L13.1406 8.42188L5.32812 0.609375L4.96875 0.265625ZM4.96875 1.6875L5.78125 2.5L5.14062 3.14062L5.85938 3.85938L6.5 3.21875L7.28125 4L6.14062 5.14062L6.85938 5.85938L8 4.71875L8.78125 5.5L8.14062 6.14062L8.85938 6.85938L9.5 6.21875L10.2812 7L9.14062 8.14062L9.85938 8.85938L11 7.71875L11.7812 8.5L11.1406 9.14062L11.7812 9.78125L9.14062 12.4219L1.6875 4.96875L4.96875 1.6875ZM20.1406 2.82812L22.1719 4.85938L4.98438 22.0469L2.95312 20.0156L20.1406 2.82812ZM17 12.2969L16.6406 12.6406L15.6406 13.6406L16.3594 14.3594L17 13.7188L17.7812 14.5L16.6406 15.6406L17.3594 16.3594L18.5 15.2188L19.2812 16L18.6406 16.6406L19.3594 17.3594L20 16.7188L20.7812 17.5L19.6406 18.6406L20.3594 19.3594L21.5 18.2188L22.2812 19L21.6406 19.6406L22.3594 20.3594L23 19.7188L23.3125 20.0312L20.0312 23.3125L13 16.2969L12.2969 17L19.6719 24.3906L20.0312 24.7344L20.3906 24.3906L24.3906 20.3906L24.7344 20.0312L24.3906 19.6719L17 12.2969Z" fill="white"/>
</g>
<defs>
<clipPath id="clip0_292_2638">
<rect width="25" height="25" fill="white"/>
</clipPath>
</defs>
</svg>
